# xmcd
#
# Track frame offsets:
#	150
#	20434
#	37363
#	55030
#	69296
#	91393
#	109113
#	117419
#	134026
#	148489
#
# Disc length: 2218 seconds
#
# Revision: 1
# Processed by: cddbd v1.5.2PL0 Copyright (c) Steve Scherf et al.
# Submitted via: audiograbber 1.83.01
#
DISCID=9908a80a
DTITLE=DLO - Northern Hillbilly
DYEAR=2005
DGENRE=
TTITLE0=Northern Hillbilly
TTITLE1=Northern Seniorietta
TTITLE2=Hero Mom
TTITLE3=Lock Emup and Throw away the Key
TTITLE4=Windego Thrill
TTITLE5=Whiskey and Water
TTITLE6=Calling Mr. Rhoads
TTITLE7=Deranged
TTITLE8=Honkey Tonkin Cougar Woman
TTITLE9=Don't Give Up
EXTD=
EXTT0=
EXTT1=
EXTT2=
EXTT3=
EXTT4=
EXTT5=
EXTT6=
EXTT7=
EXTT8=
EXTT9=
PLAYORDER=
